<svg xmlns="http://www.w3.org/2000/svg" width="12" height="12" fill="none" viewBox="0 0 12 12">
    <path fill="#848DA7" fill-rule="evenodd" d="M.857.43C.857.314.9.213.984.128 1.07.043 1.17 0 1.286 0h9.428c.116 0 .217.043.302.128.084.085.127.186.127.302v6.887h.656c.054 0 .1.02.14.06.04.04.061.088.061.142v.457c0 .054-.02.1-.06.141-.04.04-.087.06-.14.06H7.921l.877 3.276c.031.112.017.22-.043.326-.06.105-.149.174-.265.205-.116.031-.224.017-.325-.044-.1-.06-.166-.147-.197-.259L7.03 8.178H6.43v2.582c0 .117-.043.217-.128.303-.084.085-.185.127-.301.127-.116 0-.217-.042-.301-.127-.085-.086-.128-.186-.128-.303V8.178H4.97L4.03 11.68c-.031.112-.097.199-.197.26-.1.06-.209.074-.325.043-.116-.031-.204-.1-.265-.205-.06-.106-.074-.214-.043-.326l.877-3.275H.201c-.054 0-.1-.02-.14-.06C.02 8.076 0 8.03 0 7.975v-.457c0-.054.02-.101.06-.142.04-.04.087-.06.14-.06h.657V.43zm.857 6.887h8.572V.86H1.714v6.456zm.857-1.164v.733h2.572v-.733c0-.062-.021-.116-.064-.161-.042-.045-.095-.067-.157-.067h-2.13c-.062 0-.115.022-.157.067-.042.045-.064.099-.064.161z" clip-rule="evenodd"/>
</svg>
