<svg xmlns="http://www.w3.org/2000/svg" width="14" height="16" fill="none" viewBox="0 0 14 16">
    <path fill="#4B83FC" fill-rule="evenodd" d="M6.667 0C9.607 0 12 2.393 12 5.333c0 2.941-2.393 5.334-5.333 5.334-2.941 0-5.334-2.393-5.334-5.334C1.333 2.393 3.726 0 6.667 0zm0 1.333c-2.206 0-4 1.795-4 4 0 2.206 1.794 4 4 4 2.205 0 4-1.794 4-4 0-2.205-1.795-4-4-4zm.777 5.334H5.222c-.307 0-.555-.256-.555-.572 0-.315.248-.571.555-.571H6.89V3.238c0-.316.249-.571.555-.571.307 0 .556.255.556.571v2.857c0 .316-.249.572-.556.572zm5.334 7.047H8.23c-.168-.484-.538-.865-1.009-1.037h-1.11c-.472.172-.842.553-1.01 1.037H.556c-.307 0-.556.256-.556.572 0 .315.249.571.556.571h4.546c.23.664.841 1.143 1.565 1.143.723 0 1.334-.48 1.564-1.143h4.547c.307 0 .555-.256.555-.571 0-.316-.248-.572-.555-.572zm-6.111 1.143c-.307 0-.556-.256-.556-.571 0-.315.25-.572.556-.572.306 0 .555.257.555.572 0 .315-.25.571-.555.571z" clip-rule="evenodd"/>
</svg>
